<?xml version="1.0" encoding="UTF-8"?>
<svg xmlns="http://www.w3.org/2000/svg" xmlns:xlink="http://www.w3.org/1999/xlink" width="595.28pt" height="329.73pt" viewBox="0 0 595.28 329.73" version="1.1">
<defs>
<clipPath id="clip1">
  <path d="M 44 65 L 361 65 L 361 329.730469 L 44 329.730469 Z M 44 65 "/>
</clipPath>
<clipPath id="clip2">
  <path d="M 246 100 L 409 100 L 409 329.730469 L 246 329.730469 Z M 246 100 "/>
</clipPath>
<clipPath id="clip3">
  <path d="M 340 149 L 542 149 L 542 329.730469 L 340 329.730469 Z M 340 149 "/>
</clipPath>
<clipPath id="clip4">
  <path d="M 508 189 L 595.28125 189 L 595.28125 298 L 508 298 Z M 508 189 "/>
</clipPath>
<clipPath id="clip5">
  <path d="M 465 147 L 595.28125 147 L 595.28125 329.730469 L 465 329.730469 Z M 465 147 "/>
</clipPath>
</defs>
<g id="surface1">
<path style=" stroke:none;fill-rule:nonzero;fill:rgb(1.998901%,2.398682%,2.69928%);fill-opacity:1;" d="M 106.085938 33.832031 C 135.367188 47.585938 195.980469 99.726563 232.445313 117.203125 L 224.058594 139.351563 C 187.867188 122.457031 128.359375 69.738281 96.277344 55.347656 C 66.941406 42.191406 28.152344 50.1875 28.152344 50.1875 C 28.152344 50.1875 76.992188 20.164063 106.085938 33.832031 "/>
<path style=" stroke:none;fill-rule:evenodd;fill:rgb(61.199951%,31.399536%,62.399292%);fill-opacity:1;" d="M 92.292969 64.09375 C 109.296875 72.078125 136.855469 93.003906 164.117188 112.570313 L 125.398438 112.570313 C 109.117188 100.925781 94.027344 90.789063 82.488281 85.613281 C 53.148438 72.453125 14.359375 80.449219 14.359375 80.449219 C 14.359375 80.449219 63.199219 50.425781 92.292969 64.09375 M 175.226563 120.460938 C 191.890625 132.15625 207.878906 142.585938 220.632813 148.390625 L 212.253906 170.511719 L 211.390625 170.128906 C 204.769531 167.136719 197.324219 162.882813 189.386719 157.84375 "/>
<path style=" stroke:none;fill-rule:evenodd;fill:rgb(11.799622%,25.898743%,11.399841%);fill-opacity:1;" d="M 78.378906 94.628906 C 86.234375 98.316406 96.339844 104.769531 107.628906 112.570313 L 86.578125 112.570313 L 95.003906 131.632813 C 85.121094 125 76.09375 119.519531 68.570313 116.148438 C 39.234375 102.988281 0.445313 110.984375 0.445313 110.984375 C 0.445313 110.984375 49.285156 80.960938 78.378906 94.628906 M 195.097656 172.921875 C 199.398438 175.363281 203.480469 177.476563 207.265625 179.171875 L 208.730469 179.8125 L 203.21875 194.359375 "/>
<path style=" stroke:none;fill-rule:nonzero;fill:rgb(96.899414%,92.498779%,5.499268%);fill-opacity:1;" d="M 64.589844 124.894531 C 74.445313 129.523438 87.859375 138.507813 102.707031 149.054688 L 120.90625 190.230469 C 96.199219 172.214844 71.683594 153.992188 54.78125 146.410156 C 25.445313 133.25 -13.34375 141.246094 -13.34375 141.246094 C -13.34375 141.246094 35.492188 111.226563 64.589844 124.894531 "/>
<path style=" stroke:none;fill-rule:nonzero;fill:rgb(39.99939%,73.699951%,27.099609%);fill-opacity:1;" d="M 50.796875 155.15625 C 69.078125 163.742188 99.570313 187.292969 128.773438 208.027344 L 146.433594 247.980469 C 111.355469 225.464844 67.09375 188.382813 40.988281 176.675781 C 11.652344 163.515625 -27.136719 171.511719 -27.136719 171.511719 C -27.136719 171.511719 21.703125 141.488281 50.796875 155.15625 "/>
<path style=" stroke:none;fill-rule:nonzero;fill:rgb(94.099426%,28.599548%,13.699341%);fill-opacity:1;" d="M 36.882813 185.691406 C 63.683594 198.28125 116.722656 243.023438 153.476563 263.914063 L 167.359375 295.316406 C 163.539063 294.589844 159.726563 293.421875 155.972656 291.730469 C 119.90625 275.421875 59.488281 221.75 27.074219 207.210938 C -2.265625 194.050781 -41.054688 202.046875 -41.054688 202.046875 C -41.054688 202.046875 7.785156 172.023438 36.882813 185.691406 "/>
<path style=" stroke:none;fill-rule:nonzero;fill:rgb(0.799561%,0.799561%,0.799561%);fill-opacity:1;" d="M 178.308594 296.78125 L 101.046875 121.992188 L 165.730469 121.992188 L 194.96875 199.175781 C 195.3125 199.984375 195.707031 200.964844 196.160156 202.117188 C 199.902344 212.269531 202.226563 220.40625 203.132813 226.519531 C 203.925781 220.867188 206.140625 213.308594 209.761719 203.847656 C 210.554688 201.769531 211.121094 200.214844 211.460938 199.175781 L 240.710938 121.992188 L 303.785156 121.992188 L 225.746094 296.78125 "/>
<g clip-path="url(#clip1)" clip-rule="nonzero">
<path style="fill:none;stroke-width:40;stroke-linecap:butt;stroke-linejoin:miter;stroke:rgb(92.89856%,10.998535%,14.099121%);stroke-opacity:1;stroke-miterlimit:10;" d="M 1783.085938 329.4875 L 1010.46875 2077.378125 L 1657.304688 2077.378125 L 1949.6875 1305.542187 C 1953.125 1297.45625 1957.070313 1287.651562 1961.601563 1276.128125 C 1999.023438 1174.604687 2022.265625 1093.2375 2031.328125 1032.104687 C 2039.257813 1088.628125 2061.40625 1164.214062 2097.617188 1258.823437 C 2105.546875 1279.604687 2111.210938 1295.151562 2114.609375 1305.542187 L 2407.109375 2077.378125 L 3037.851563 2077.378125 L 2257.460938 329.4875 Z M 1783.085938 329.4875 " transform="matrix(0.1,0,0,-0.1,0,329.73)"/>
</g>
<path style=" stroke:none;fill-rule:nonzero;fill:rgb(92.89856%,11.399841%,14.898682%);fill-opacity:1;" d="M 119.878906 3.566406 C 149.847656 17.644531 212.632813 71.929688 248.761719 88.109375 C 284.894531 104.289063 316.855469 93.121094 316.855469 93.121094 C 316.855469 93.121094 275.039063 125.910156 238.972656 109.601563 C 202.902344 93.296875 142.484375 39.625 110.070313 25.085938 C 80.734375 11.925781 41.945313 19.921875 41.945313 19.921875 C 41.945313 19.921875 90.78125 -10.101563 119.878906 3.566406 "/>
<path style=" stroke:none;fill-rule:nonzero;fill:rgb(22.698975%,32.199097%,63.899231%);fill-opacity:1;" d="M 23.089844 215.957031 C 53.058594 230.03125 115.84375 284.320313 151.976563 300.496094 C 188.105469 316.675781 220.066406 305.507813 220.066406 305.507813 C 220.066406 305.507813 178.25 338.300781 142.183594 321.992188 C 106.113281 305.6875 45.695313 252.011719 13.28125 237.472656 C -16.054688 224.3125 -54.84375 232.3125 -54.84375 232.3125 C -54.84375 232.3125 -6.003906 202.289063 23.089844 215.957031 "/>
<path style=" stroke:none;fill-rule:nonzero;fill:rgb(0.799561%,0.799561%,0.799561%);fill-opacity:1;" d="M 366.308594 246.597656 C 366.308594 260.871094 360.296875 273.105469 348.273438 283.300781 C 337.726563 292.300781 324.894531 298.03125 309.777344 300.492188 C 309.214844 300.5625 308.757813 300.597656 308.40625 300.597656 C 306.789063 300.597656 303.203125 295.65625 297.648438 285.777344 C 292.09375 275.898438 289.316406 269.871094 289.316406 267.691406 C 289.316406 266.917969 289.84375 266.425781 290.898438 266.214844 C 301.09375 263.894531 307.84375 261.925781 311.148438 260.308594 C 318.460938 256.652344 322.117188 251.238281 322.117188 244.066406 C 322.117188 239.496094 319.726563 234.398438 314.945313 228.773438 C 306.648438 219.210938 302.148438 213.902344 301.445313 212.847656 C 296.59375 205.535156 294.167969 197.449219 294.167969 188.589844 C 294.167969 175.722656 300.109375 165.035156 311.992188 156.527344 C 321.695313 149.496094 333.613281 144.925781 347.746094 142.816406 C 348.519531 142.746094 349.117188 142.710938 349.539063 142.710938 C 350.59375 142.710938 351.4375 143.554688 352.070313 145.242188 C 353.898438 150.375 358.152344 159.65625 364.832031 173.085938 C 365.042969 173.507813 365.148438 173.859375 365.148438 174.140625 C 365.148438 175.335938 364.515625 175.933594 363.25 175.933594 C 362.6875 175.933594 361.738281 175.828125 360.402344 175.617188 C 359.066406 175.40625 358.046875 175.300781 357.34375 175.300781 C 352.28125 175.300781 347.851563 176.460938 344.054688 178.78125 C 339.484375 181.453125 337.199219 185.179688 337.199219 189.960938 C 337.199219 194.25 339.730469 199.523438 344.792969 205.78125 C 353.722656 217.03125 358.398438 222.9375 358.820313 223.5 C 363.8125 231.234375 366.308594 238.933594 366.308594 246.597656 "/>
<g clip-path="url(#clip2)" clip-rule="nonzero">
<path style="fill:none;stroke-width:30;stroke-linecap:butt;stroke-linejoin:miter;stroke:rgb(92.89856%,12.199402%,14.099121%);stroke-opacity:1;stroke-miterlimit:10;" d="M 3663.085938 831.323437 C 3663.085938 688.589062 3602.96875 566.245312 3482.734375 464.292187 C 3377.265625 374.292187 3248.945313 316.9875 3097.773438 292.378125 C 3092.148438 291.675 3087.578125 291.323437 3084.0625 291.323437 C 3067.890625 291.323437 3032.03125 340.7375 2976.484375 439.526562 C 2920.9375 538.315625 2893.164063 598.589062 2893.164063 620.385937 C 2893.164063 628.120312 2898.4375 633.042187 2908.984375 635.151562 C 3010.9375 658.354687 3078.4375 678.042187 3111.484375 694.214062 C 3184.609375 730.776562 3221.171875 784.917187 3221.171875 856.635937 C 3221.171875 902.339062 3197.265625 953.315625 3149.453125 1009.565625 C 3066.484375 1105.190625 3021.484375 1158.276562 3014.453125 1168.823437 C 2965.9375 1241.948437 2941.679688 1322.807812 2941.679688 1411.401562 C 2941.679688 1540.073437 3001.09375 1646.948437 3119.921875 1732.026562 C 3216.953125 1802.339062 3336.132813 1848.042187 3477.460938 1869.135937 C 3485.195313 1869.839062 3491.171875 1870.190625 3495.390625 1870.190625 C 3505.9375 1870.190625 3514.375 1861.753125 3520.703125 1844.878125 C 3538.984375 1793.55 3581.523438 1700.7375 3648.320313 1566.440625 C 3650.429688 1562.221875 3651.484375 1558.70625 3651.484375 1555.89375 C 3651.484375 1543.940625 3645.15625 1537.964062 3632.5 1537.964062 C 3626.875 1537.964062 3617.382813 1539.01875 3604.023438 1541.128125 C 3590.664063 1543.2375 3580.46875 1544.292187 3573.4375 1544.292187 C 3522.8125 1544.292187 3478.515625 1532.690625 3440.546875 1509.4875 C 3394.84375 1482.76875 3371.992188 1445.503125 3371.992188 1397.690625 C 3371.992188 1354.8 3397.304688 1302.065625 3447.929688 1239.4875 C 3537.226563 1126.9875 3583.984375 1067.925 3588.203125 1062.3 C 3638.125 984.95625 3663.085938 907.964062 3663.085938 831.323437 Z M 3663.085938 831.323437 " transform="matrix(0.1,0,0,-0.1,0,329.73)"/>
</g>
<path style=" stroke:none;fill-rule:nonzero;fill:rgb(0.799561%,0.799561%,0.799561%);fill-opacity:1;" d="M 460.28125 244.171875 C 460.28125 238.546875 458.558594 233.625 455.113281 229.40625 C 451.386719 224.976563 446.78125 222.761719 441.296875 222.761719 C 435.671875 222.761719 431.171875 224.976563 427.796875 229.40625 C 424.84375 233.414063 423.367188 238.335938 423.367188 244.171875 C 423.367188 250.148438 424.914063 255.105469 428.007813 259.042969 C 431.3125 263.332031 435.882813 265.476563 441.71875 265.476563 C 454.09375 265.476563 460.28125 258.375 460.28125 244.171875 M 499.410156 244.382813 C 499.410156 259.429688 494.980469 271.910156 486.121094 281.824219 C 476.980469 292.089844 464.992188 297.222656 450.15625 297.222656 C 444.742188 297.222656 438.941406 295.886719 432.753906 293.214844 C 426.566406 290.542969 423.753906 289.207031 424.316406 289.207031 C 423.402344 289.207031 422.945313 290.261719 422.945313 292.371094 C 422.945313 295.957031 423.121094 301.351563 423.472656 308.558594 C 423.824219 315.765625 424 321.164063 424 324.75 C 424 327 422.839844 328.125 420.519531 328.125 L 399.003906 328.230469 C 394.152344 328.230469 391.023438 328.054688 389.617188 327.703125 C 387.507813 327.210938 386.453125 325.910156 386.453125 323.800781 L 386.664063 242.589844 C 386.664063 226.207031 385.433594 212.390625 382.972656 201.140625 C 382.832031 200.4375 382.761719 199.839844 382.761719 199.347656 C 382.761719 198.292969 383.183594 197.589844 384.027344 197.238281 C 386.769531 196.183594 392.007813 195.058594 399.742188 193.863281 C 407.265625 192.667969 412.714844 192.070313 416.089844 192.070313 C 418.832031 192.070313 420.394531 193.878906 420.78125 197.5 C 421.171875 201.121094 421.644531 202.933594 422.207031 202.933594 C 421.503906 202.933594 424.511719 201.015625 431.222656 197.183594 C 437.9375 193.351563 444.039063 191.4375 449.523438 191.4375 C 464.78125 191.4375 476.980469 196.464844 486.121094 206.519531 C 494.980469 216.222656 499.410156 228.84375 499.410156 244.382813 "/>
<g clip-path="url(#clip3)" clip-rule="nonzero">
<path style="fill:none;stroke-width:30;stroke-linecap:butt;stroke-linejoin:miter;stroke:rgb(92.89856%,12.199402%,14.099121%);stroke-opacity:1;stroke-miterlimit:10;" d="M 4602.8125 855.58125 C 4602.8125 911.83125 4585.585938 961.05 4551.132813 1003.2375 C 4513.867188 1047.534375 4467.8125 1069.682812 4412.96875 1069.682812 C 4356.71875 1069.682812 4311.71875 1047.534375 4277.96875 1003.2375 C 4248.4375 963.159375 4233.671875 913.940625 4233.671875 855.58125 C 4233.671875 795.815625 4249.140625 746.245312 4280.078125 706.870312 C 4313.125 663.979687 4358.828125 642.534375 4417.1875 642.534375 C 4540.9375 642.534375 4602.8125 713.55 4602.8125 855.58125 Z M 4994.101563 853.471875 C 4994.101563 703.003125 4949.804688 578.198437 4861.210938 479.057812 C 4769.804688 376.401562 4649.921875 325.073437 4501.5625 325.073437 C 4447.421875 325.073437 4389.414063 338.432812 4327.539063 365.151562 C 4265.664063 391.870312 4237.539063 405.229687 4243.164063 405.229687 C 4234.023438 405.229687 4229.453125 394.682812 4229.453125 373.589062 C 4229.453125 337.729687 4231.210938 283.784375 4234.726563 211.714062 C 4238.242188 139.64375 4240 85.659375 4240 49.8 C 4240 27.3 4228.398438 16.05 4205.195313 16.05 L 3990.039063 14.995312 C 3941.523438 14.995312 3910.234375 16.753125 3896.171875 20.26875 C 3875.078125 25.190625 3864.53125 38.198437 3864.53125 59.292187 L 3866.640625 871.401562 C 3866.640625 1035.229687 3854.335938 1173.39375 3829.726563 1285.89375 C 3828.320313 1292.925 3827.617188 1298.901562 3827.617188 1303.823437 C 3827.617188 1314.370312 3831.835938 1321.401562 3840.273438 1324.917187 C 3867.695313 1335.464062 3920.078125 1346.714062 3997.421875 1358.667187 C 4072.65625 1370.620312 4127.148438 1376.596875 4160.898438 1376.596875 C 4188.320313 1376.596875 4203.945313 1358.510937 4207.8125 1322.3 C 4211.71875 1286.089062 4216.445313 1267.964062 4222.070313 1267.964062 C 4215.039063 1267.964062 4245.117188 1287.14375 4312.226563 1325.464062 C 4379.375 1363.784375 4440.390625 1382.925 4495.234375 1382.925 C 4647.8125 1382.925 4769.804688 1332.651562 4861.210938 1232.104687 C 4949.804688 1135.073437 4994.101563 1008.8625 4994.101563 853.471875 Z M 4994.101563 853.471875 " transform="matrix(0.1,0,0,-0.1,0,329.73)"/>
</g>
<g clip-path="url(#clip4)" clip-rule="nonzero">
<path style=" stroke:none;fill-rule:nonzero;fill:rgb(0.799561%,0.799561%,0.799561%);fill-opacity:1;" d="M 579.988281 243.222656 C 579.988281 237.667969 578.265625 232.761719 574.820313 228.507813 C 571.375 224.253906 566.910156 222.128906 561.425781 222.128906 C 555.871094 222.128906 551.300781 224.308594 547.714844 228.667969 C 544.339844 232.746094 542.652344 237.597656 542.652344 243.222656 C 542.652344 248.917969 544.339844 253.804688 547.714844 257.882813 C 551.300781 262.242188 555.871094 264.421875 561.425781 264.421875 C 566.910156 264.421875 571.445313 262.242188 575.03125 257.882813 C 578.335938 253.804688 579.988281 248.917969 579.988281 243.222656 M 614.582031 243.222656 C 614.582031 259.253906 609.675781 272.261719 599.867188 282.246094 C 590.058594 292.230469 577.175781 297.222656 561.214844 297.222656 C 545.746094 297.222656 533.019531 292.300781 523.035156 282.457031 C 513.050781 272.613281 508.058594 259.957031 508.058594 244.488281 C 508.058594 228.175781 512.839844 214.9375 522.402344 204.777344 C 531.964844 194.617188 544.902344 189.539063 561.214844 189.539063 C 577.105469 189.539063 589.972656 194.511719 599.816406 204.460938 C 609.660156 214.410156 614.582031 227.332031 614.582031 243.222656 "/>
</g>
<g clip-path="url(#clip5)" clip-rule="nonzero">
<path style="fill:none;stroke-width:30;stroke-linecap:butt;stroke-linejoin:miter;stroke:rgb(92.89856%,12.199402%,14.099121%);stroke-opacity:1;stroke-miterlimit:10;" d="M 5799.882813 865.073437 C 5799.882813 920.620312 5782.65625 969.682812 5748.203125 1012.221875 C 5713.75 1054.760937 5669.101563 1076.010937 5614.257813 1076.010937 C 5558.710938 1076.010937 5513.007813 1054.214062 5477.148438 1010.620312 C 5443.398438 969.839062 5426.523438 921.323437 5426.523438 865.073437 C 5426.523438 808.120312 5443.398438 759.253125 5477.148438 718.471875 C 5513.007813 674.878125 5558.710938 653.08125 5614.257813 653.08125 C 5669.101563 653.08125 5714.453125 674.878125 5750.3125 718.471875 C 5783.359375 759.253125 5799.882813 808.120312 5799.882813 865.073437 Z M 6145.820313 865.073437 C 6145.820313 704.760937 6096.757813 574.682812 5998.671875 474.839062 C 5900.585938 374.995312 5771.757813 325.073437 5612.148438 325.073437 C 5457.460938 325.073437 5330.195313 374.292187 5230.351563 472.729687 C 5130.507813 571.167187 5080.585938 697.729687 5080.585938 852.417187 C 5080.585938 1015.542187 5128.398438 1147.925 5224.023438 1249.526562 C 5319.648438 1351.128125 5449.023438 1401.909375 5612.148438 1401.909375 C 5771.054688 1401.909375 5899.726563 1352.182812 5998.164063 1252.690625 C 6096.601563 1153.198437 6145.820313 1023.979687 6145.820313 865.073437 Z M 6145.820313 865.073437 " transform="matrix(0.1,0,0,-0.1,0,329.73)"/>
</g>
</g>
</svg>
